<mxfile host="app.diagrams.net" modified="2022-09-14T08:31:29.087Z" agent="5.0 (Windows NT 10.0; Win64; x64) AppleWebKit/537.36 (KHTML, like Gecko) Chrome/96.0.4664.110 Safari/537.36" etag="ROE56ZBjCc1NSQTaXMfO" version="17.4.5" type="github">
  <diagram id="prtHgNgQTEPvFCAcTncT" name="Page-1">
    <mxGraphModel dx="717" dy="392" grid="1" gridSize="10" guides="1" tooltips="1" connect="1" arrows="1" fold="1" page="1" pageScale="1" pageWidth="827" pageHeight="1169" math="0" shadow="0">
      <root>
        <mxCell id="0" />
        <mxCell id="1" parent="0" />
        <mxCell id="HBb1eU0lWQrneoy7IK7H-2" value="" style="shape=flexArrow;endArrow=classic;html=1;rounded=0;" edge="1" parent="1">
          <mxGeometry width="50" height="50" relative="1" as="geometry">
            <mxPoint x="140" y="280" as="sourcePoint" />
            <mxPoint x="210" y="280" as="targetPoint" />
          </mxGeometry>
        </mxCell>
        <mxCell id="HBb1eU0lWQrneoy7IK7H-3" value="" style="shape=flexArrow;endArrow=classic;html=1;rounded=0;" edge="1" parent="1">
          <mxGeometry width="50" height="50" relative="1" as="geometry">
            <mxPoint x="140" y="440" as="sourcePoint" />
            <mxPoint x="210" y="440" as="targetPoint" />
          </mxGeometry>
        </mxCell>
        <mxCell id="HBb1eU0lWQrneoy7IK7H-7" style="edgeStyle=orthogonalEdgeStyle;rounded=0;orthogonalLoop=1;jettySize=auto;html=1;exitX=1;exitY=0.5;exitDx=0;exitDy=0;" edge="1" parent="1" source="HBb1eU0lWQrneoy7IK7H-4">
          <mxGeometry relative="1" as="geometry">
            <mxPoint x="390" y="280" as="targetPoint" />
          </mxGeometry>
        </mxCell>
        <mxCell id="HBb1eU0lWQrneoy7IK7H-4" value="Mạch Switching&lt;br&gt;Hạ áp từ 27V xuống 4V" style="rounded=1;whiteSpace=wrap;html=1;" vertex="1" parent="1">
          <mxGeometry x="210" y="250" width="140" height="60" as="geometry" />
        </mxCell>
        <mxCell id="HBb1eU0lWQrneoy7IK7H-5" value="" style="shape=flexArrow;endArrow=classic;html=1;rounded=0;width=9.142857142857142;endSize=5.394285714285714;entryX=0;entryY=0.25;entryDx=0;entryDy=0;" edge="1" parent="1" target="HBb1eU0lWQrneoy7IK7H-6">
          <mxGeometry width="50" height="50" relative="1" as="geometry">
            <mxPoint x="180" y="285" as="sourcePoint" />
            <mxPoint x="210" y="345" as="targetPoint" />
            <Array as="points">
              <mxPoint x="180" y="400" />
            </Array>
          </mxGeometry>
        </mxCell>
        <mxCell id="HBb1eU0lWQrneoy7IK7H-6" value="Mạch chuyển nguồn" style="rounded=1;whiteSpace=wrap;html=1;" vertex="1" parent="1">
          <mxGeometry x="210" y="380" width="140" height="80" as="geometry" />
        </mxCell>
        <mxCell id="HBb1eU0lWQrneoy7IK7H-9" style="edgeStyle=orthogonalEdgeStyle;rounded=0;orthogonalLoop=1;jettySize=auto;html=1;entryX=0.472;entryY=-0.009;entryDx=0;entryDy=0;entryPerimeter=0;" edge="1" parent="1" source="HBb1eU0lWQrneoy7IK7H-8" target="HBb1eU0lWQrneoy7IK7H-6">
          <mxGeometry relative="1" as="geometry">
            <mxPoint x="530" y="390" as="targetPoint" />
            <Array as="points">
              <mxPoint x="540" y="280" />
              <mxPoint x="540" y="360" />
              <mxPoint x="276" y="360" />
            </Array>
          </mxGeometry>
        </mxCell>
        <mxCell id="HBb1eU0lWQrneoy7IK7H-8" value="Mạch LDO hạ áp từ 4V xuống 3,3V" style="rounded=1;whiteSpace=wrap;html=1;" vertex="1" parent="1">
          <mxGeometry x="390" y="250" width="120" height="60" as="geometry" />
        </mxCell>
        <mxCell id="HBb1eU0lWQrneoy7IK7H-10" value="" style="shape=flexArrow;endArrow=classic;html=1;rounded=0;exitX=1;exitY=0.5;exitDx=0;exitDy=0;" edge="1" parent="1" source="HBb1eU0lWQrneoy7IK7H-6">
          <mxGeometry width="50" height="50" relative="1" as="geometry">
            <mxPoint x="414" y="419.71" as="sourcePoint" />
            <mxPoint x="524" y="420" as="targetPoint" />
          </mxGeometry>
        </mxCell>
        <mxCell id="HBb1eU0lWQrneoy7IK7H-11" value="27V từ nguồn điện xe" style="text;html=1;resizable=0;autosize=1;align=center;verticalAlign=middle;points=[];fillColor=none;strokeColor=none;rounded=0;" vertex="1" parent="1">
          <mxGeometry x="60" y="250" width="130" height="20" as="geometry" />
        </mxCell>
        <mxCell id="HBb1eU0lWQrneoy7IK7H-12" value="3,3 V từ nguồn pin" style="text;html=1;resizable=0;autosize=1;align=center;verticalAlign=middle;points=[];fillColor=none;strokeColor=none;rounded=0;" vertex="1" parent="1">
          <mxGeometry x="70" y="410" width="110" height="20" as="geometry" />
        </mxCell>
        <mxCell id="HBb1eU0lWQrneoy7IK7H-13" value="3,3 V cấp cho EOP và LED" style="text;html=1;resizable=0;autosize=1;align=center;verticalAlign=middle;points=[];fillColor=none;strokeColor=none;rounded=0;" vertex="1" parent="1">
          <mxGeometry x="350" y="390" width="160" height="20" as="geometry" />
        </mxCell>
      </root>
    </mxGraphModel>
  </diagram>
</mxfile>
